<?xml version="1.0" standalone="no"?>
<!DOCTYPE svg PUBLIC "-//W3C//DTD SVG 20010904//EN"
 "http://www.w3.org/TR/2001/REC-SVG-20010904/DTD/svg10.dtd">
<svg version="1.0" xmlns="http://www.w3.org/2000/svg"
 width="140.000000pt" height="156.000000pt" viewBox="0 0 140.000000 156.000000"
 preserveAspectRatio="xMidYMid meet">

<g transform="translate(0.000000,156.000000) scale(0.100000,-0.100000)"
fill="#000000" stroke="none">
<path d="M575 1525 c-55 -12 -123 -40 -199 -82 -47 -26 -160 -144 -184 -193
-39 -82 -55 -167 -49 -265 5 -99 -1 -119 -69 -218 -24 -35 -34 -60 -34 -88 0
-45 18 -59 79 -59 l41 0 0 -95 c0 -149 11 -161 173 -186 l77 -12 0 -83 c0 -83
0 -84 25 -84 25 0 25 0 25 100 0 119 2 117 -124 119 -99 2 -128 12 -126 44 1
12 2 63 1 113 -1 112 -10 127 -77 131 -27 1 -52 2 -56 2 -17 2 -5 22 62 105
l69 86 -6 98 c-9 158 41 308 130 388 157 142 502 177 711 72 74 -37 122 -77
180 -152 68 -88 89 -149 94 -284 6 -172 -20 -222 -178 -340 -90 -68 -115 -94
-143 -147 -36 -71 -28 -118 47 -269 63 -128 77 -146 113 -146 26 0 10 53 -51
181 -61 127 -69 174 -39 236 17 36 35 56 136 152 111 105 147 188 149 338 1
117 -8 166 -44 238 -80 159 -227 260 -437 300 -92 18 -215 18 -296 0z"/>
<path d="M459 1298 c0 -2 -2 -27 -4 -56 -2 -33 -10 -61 -21 -73 -16 -18 -16
-19 15 -19 28 0 31 2 25 24 -3 14 -1 32 4 42 8 14 11 10 17 -24 4 -23 12 -42
19 -42 7 0 23 18 35 41 27 47 41 46 17 -2 -9 -18 -16 -33 -16 -35 0 -5 164 -3
185 2 17 4 20 11 17 34 -2 15 0 36 5 45 8 14 12 8 23 -29 10 -37 17 -46 35
-46 19 0 24 7 29 43 4 23 13 55 21 70 14 27 13 27 -16 27 -25 0 -29 -3 -24
-19 7 -24 -4 -73 -15 -66 -5 3 -11 23 -15 45 l-7 40 -108 0 -107 0 -24 -52
-23 -53 -5 50 c-5 45 -8 50 -33 53 -16 2 -28 2 -29 0z m201 -23 c0 -2 -5 -27
-11 -55 -8 -39 -15 -50 -30 -50 -22 0 -24 17 -8 73 7 26 15 37 29 37 11 0 20
-2 20 -5z m68 -42 c-12 -55 -21 -68 -42 -60 -12 5 -13 13 -5 44 16 61 17 63
37 63 18 0 19 -4 10 -47z"/>
<path d="M896 1290 c13 -13 -3 -88 -25 -114 -12 -14 -8 -16 46 -16 78 0 106
25 101 91 l-3 44 -65 3 c-47 2 -62 0 -54 -8z m75 -10 c40 -22 15 -100 -33
-100 -19 0 -20 4 -13 48 10 67 12 69 46 52z"/>
<path d="M860 1109 c0 -5 5 -7 10 -4 6 3 10 8 10 11 0 2 -4 4 -10 4 -5 0 -10
-5 -10 -11z"/>
<path d="M1164 1092 c-6 -4 -19 -23 -29 -42 -10 -19 -20 -29 -22 -23 -4 10
-10 10 -25 2 -24 -13 -44 1 -35 26 8 20 40 32 45 17 4 -14 22 -6 22 9 0 6 -17
9 -37 7 -31 -2 -39 -8 -48 -31 -8 -24 -6 -31 9 -42 22 -16 86 -8 102 13 12 16
39 7 29 -9 -4 -5 3 -9 13 -9 18 0 19 3 8 39 -13 46 -18 52 -32 43z"/>
<path d="M602 1055 c-1 -20 -4 -40 -7 -45 -4 -6 3 -10 14 -10 14 0 19 5 15 15
-4 8 -1 15 5 15 6 0 11 -7 11 -15 0 -12 17 -15 95 -15 78 0 95 3 95 15 0 8 7
15 16 15 10 0 14 -6 10 -15 -4 -10 1 -15 14 -15 16 0 19 5 14 33 -13 71 -22
74 -60 17 -15 -22 -30 -37 -34 -35 -9 6 -1 44 13 63 7 9 4 12 -12 12 -13 0
-26 -10 -33 -25 -12 -27 -28 -24 -28 6 0 12 -7 19 -20 19 -13 0 -19 -6 -18
-17 1 -10 0 -28 0 -41 -3 -37 -27 -20 -27 19 0 31 -3 34 -31 37 -29 3 -31 1
-32 -33z m48 7 c0 -13 -12 -22 -22 -16 -10 6 -1 24 13 24 5 0 9 -4 9 -8z m120
-36 c0 -3 -4 -8 -10 -11 -5 -3 -10 -1 -10 4 0 6 5 11 10 11 6 0 10 -2 10 -4z"/>
<path d="M910 1074 c0 -8 5 -12 10 -9 14 9 12 -39 -2 -53 -9 -9 -7 -12 10 -12
19 0 22 6 22 36 0 28 3 35 15 30 8 -3 15 -1 15 4 0 6 5 10 11 10 11 0 8 -25
-7 -64 -4 -11 0 -16 14 -16 15 0 18 5 15 24 -3 13 0 33 6 45 11 20 10 21 -49
21 -48 0 -60 -3 -60 -16z"/>
<path d="M276 1065 c3 -8 -1 -28 -9 -45 l-15 -30 44 0 c40 0 45 2 39 19 -3 11
-2 22 4 25 5 3 12 -6 15 -20 9 -35 29 -25 39 19 5 20 13 37 18 37 13 0 11 -54
-2 -67 -9 -9 -7 -12 9 -10 14 1 21 7 19 16 -1 9 4 16 12 16 8 0 16 6 19 13 2
6 -1 12 -7 12 -6 0 -11 5 -11 11 0 6 9 8 20 4 11 -4 20 -2 20 4 0 7 -23 11
-55 11 -48 0 -55 -2 -55 -20 0 -11 -4 -20 -9 -20 -5 0 -11 9 -14 20 -4 16 -14
20 -46 20 -31 0 -39 -3 -35 -15z m44 -7 c0 -25 -12 -58 -21 -58 -10 0 -12 31
-3 54 7 19 24 21 24 4z"/>
<path d="M506 1058 c-9 -12 -16 -28 -16 -35 0 -18 33 -33 58 -26 21 5 42 48
35 71 -8 21 -60 14 -77 -10z m57 5 c8 -14 -12 -53 -27 -53 -22 0 -28 17 -16
40 11 20 35 27 43 13z"/>
<path d="M595 100 c-82 -3 -156 -9 -162 -13 -7 -5 -13 -17 -13 -27 0 -28 43
-33 239 -25 136 6 197 13 270 32 52 13 101 28 110 33 17 10 -153 10 -444 0z"/>
</g>
</svg>
